<?xml version="1.0" encoding="utf-8"?>
<!-- Generator: Adobe Illustrator 17.0.0, SVG Export Plug-In . SVG Version: 6.00 Build 0)  -->
<!DOCTYPE svg PUBLIC "-//W3C//DTD SVG 1.1//EN" "http://www.w3.org/Graphics/SVG/1.1/DTD/svg11.dtd">
<svg version="1.1" id="Layer_1" xmlns="http://www.w3.org/2000/svg" xmlns:xlink="http://www.w3.org/1999/xlink" x="0px" y="0px"
	 width="21.198px" height="24.058px" viewBox="0 0 21.198 24.058" enable-background="new 0 0 21.198 24.058" xml:space="preserve">
<g>
	<path fill="#FFFFFF" d="M18.588,4.926v16.612H1.407V4.357h16.594c0.578-0.402,1.101-0.743,1.565-1.022L19.9,3.939
		C19.525,4.21,19.087,4.539,18.588,4.926z M9.423,17.231l-0.51,0.337c-0.441,0.286-0.819,0.573-1.137,0.859
		c-0.062-0.279-0.217-0.727-0.464-1.347l-0.255-0.662c-0.579-1.432-1.069-2.432-1.468-3.001c-0.398-0.569-0.829-0.876-1.293-0.923
		c0.627-0.573,1.176-0.859,1.647-0.859c0.635,0,1.334,0.863,2.1,2.589l0.417,0.929c2.019-3.622,4.702-6.841,8.05-9.658H2.545v14.894
		h14.882V5.901c-1.794,1.641-3.409,3.477-4.843,5.508C11.15,13.441,10.096,15.382,9.423,17.231z"/>
</g>
</svg>
