<?xml version="1.0" encoding="utf-8"?>
<!-- Generator: Adobe Illustrator 17.0.0, SVG Export Plug-In . SVG Version: 6.00 Build 0)  -->
<!DOCTYPE svg PUBLIC "-//W3C//DTD SVG 1.1//EN" "http://www.w3.org/Graphics/SVG/1.1/DTD/svg11.dtd">
<svg version="1.1" id="Layer_1" xmlns="http://www.w3.org/2000/svg" xmlns:xlink="http://www.w3.org/1999/xlink" x="0px" y="0px"
	 width="46.846px" height="45.25px" viewBox="0 0 46.846 45.25" enable-background="new 0 0 46.846 45.25" xml:space="preserve">
<circle fill="#FAA61A" cx="23.423" cy="22.625" r="21.55"/>
<g>
	<path fill="#FFFFFF" d="M19.919,31l2.225-0.89l-3.096-3.87l-0.889,0.443L19.919,31z"/>
	<path fill="#FFFFFF" d="M24.701,30.111l2.225,0.89l1.758-4.316l-0.889-0.443L24.701,30.111z"/>
	<path fill="#FFFFFF" d="M21.769,27.119l1.653,2.067l1.653-2.067C23.999,27.352,22.881,27.36,21.769,27.119L21.769,27.119z"/>
	<path fill="#FFFFFF" d="M18.756,32.32l-2.081-5.105l-2.745,0.549c-1.344,0.269-2.322,1.459-2.322,2.831v4.684
		c0,0.435,0.353,0.787,0.787,0.787h10.237v-4.454l-2.857,1.143C19.376,32.914,18.92,32.719,18.756,32.32L18.756,32.32z"/>
	<path fill="#FFFFFF" d="M32.914,27.762l-2.745-0.549l-2.081,5.105c-0.163,0.4-0.619,0.595-1.022,0.434L24.21,31.61v4.454h10.237
		c0.435,0,0.787-0.353,0.787-0.787v-4.684C35.234,29.223,34.258,28.031,32.914,27.762L32.914,27.762z"/>
	<path fill="#FFFFFF" d="M29.723,14.698v-1.576c0-2.171-1.767-3.937-3.937-3.937H15.549c-0.435,0-0.787,0.353-0.787,0.787v2.888
		c0,0.665,0.197,1.3,0.528,1.838H29.723z"/>
	<path fill="#FFFFFF" d="M29.723,16.273h-12.6v0.135c-0.917,0.324-1.576,1.2-1.576,2.228c0,1.093,0.746,2.013,1.754,2.283
		c0.686,2.81,3.21,4.804,6.12,4.804c2.906,0,5.433-1.989,6.12-4.804c1.01-0.269,1.754-1.191,1.754-2.283
		c0-1.027-0.658-1.903-1.576-2.228v-0.135C29.721,16.273,29.723,16.273,29.723,16.273z M24.21,22.678h-1.576
		c-0.435,0-0.787-0.353-0.787-0.787s0.353-0.787,0.787-0.787h1.576c0.435,0,0.787,0.353,0.787,0.787S24.645,22.678,24.21,22.678
		L24.21,22.678z"/>
</g>
</svg>
