<?xml version="1.0" encoding="utf-8"?>
<!-- Generator: Adobe Illustrator 17.0.0, SVG Export Plug-In . SVG Version: 6.00 Build 0)  -->
<!DOCTYPE svg PUBLIC "-//W3C//DTD SVG 1.1//EN" "http://www.w3.org/Graphics/SVG/1.1/DTD/svg11.dtd">
<svg version="1.1" id="Layer_1" xmlns="http://www.w3.org/2000/svg" xmlns:xlink="http://www.w3.org/1999/xlink" x="0px" y="0px"
	 width="21.198px" height="24.058px" viewBox="12.411 12.454 21.198 24.058" enable-background="new 12.411 12.454 21.198 24.058"
	 xml:space="preserve">
<g>
	<path fill="#FFFFFF" d="M26.121,19.457c-0.445-1.246-1.299-2.87-2.553-3.293v3.293H26.121z"/>
	<path fill="#FFFFFF" d="M26.121,19.457"/>
	<path fill="#FFFFFF" d="M26.91,23.924c-0.037-1.183-0.191-2.319-0.451-3.351h-2.89v3.351H26.91z"/>
	<path fill="#FFFFFF" d="M26.91,23.924"/>
	<path fill="#FFFFFF" d="M17.992,25.041h-4.496c0.067,1.172,0.346,2.303,0.817,3.351h4.098
		C18.173,27.364,18.027,26.235,17.992,25.041L17.992,25.041z"/>
	<path fill="#FFFFFF" d="M17.992,25.041"/>
	<path fill="#FFFFFF" d="M19.899,19.457h2.553v-3.293C21.198,16.587,20.344,18.21,19.899,19.457L19.899,19.457z"/>
	<path fill="#FFFFFF" d="M19.899,19.457"/>
	<path fill="#FFFFFF" d="M27.609,28.392h4.098c0.471-1.047,0.75-2.179,0.817-3.351h-4.496
		C27.992,26.235,27.847,27.364,27.609,28.392L27.609,28.392z"/>
	<path fill="#FFFFFF" d="M27.609,28.392"/>
	<path fill="#FFFFFF" d="M18.41,20.574h-4.098c-0.471,1.047-0.75,2.179-0.817,3.351h4.496C18.027,22.731,18.173,21.602,18.41,20.574
		L18.41,20.574z"/>
	<path fill="#FFFFFF" d="M18.41,20.574"/>
	<path fill="#FFFFFF" d="M19.899,29.509c0.445,1.246,1.299,2.87,2.553,3.293v-3.293H19.899z"/>
	<path fill="#FFFFFF" d="M19.899,29.509"/>
	<path fill="#FFFFFF" d="M22.451,23.924v-3.351h-2.891c-0.26,1.032-0.414,2.167-0.451,3.351H22.451z"/>
	<path fill="#FFFFFF" d="M22.451,23.924"/>
	<path fill="#FFFFFF" d="M22.451,25.041H19.11c0.037,1.183,0.191,2.319,0.451,3.351h2.891V25.041z"/>
	<path fill="#FFFFFF" d="M22.451,25.041"/>
	<path fill="#FFFFFF" d="M27.302,19.457h3.809c-1.714-2.751-4.721-4.505-8.101-4.505C24.848,14.952,26.427,16.734,27.302,19.457
		L27.302,19.457z"/>
	<path fill="#FFFFFF" d="M27.302,19.457"/>
	<path fill="#FFFFFF" d="M18.717,19.457c0.875-2.723,2.454-4.505,4.292-4.505c-3.37,0-6.383,1.747-8.101,4.505H18.717z"/>
	<path fill="#FFFFFF" d="M18.717,19.457"/>
	<path fill="#FFFFFF" d="M27.302,29.509c-0.875,2.723-2.454,4.505-4.292,4.505c3.37,0,6.383-1.747,8.101-4.505H27.302z"/>
	<path fill="#FFFFFF" d="M27.302,29.509"/>
	<path fill="#FFFFFF" d="M18.717,29.509h-3.809c1.714,2.751,4.721,4.505,8.101,4.505C21.171,34.013,19.593,32.231,18.717,29.509
		L18.717,29.509z"/>
	<path fill="#FFFFFF" d="M18.717,29.509"/>
	<path fill="#FFFFFF" d="M27.609,20.574c0.238,1.028,0.383,2.157,0.418,3.351h4.496c-0.067-1.172-0.346-2.303-0.817-3.351H27.609z"
		/>
	<path fill="#FFFFFF" d="M27.609,20.574"/>
	<path fill="#FFFFFF" d="M26.121,29.509h-2.553v3.293C24.822,32.379,25.675,30.755,26.121,29.509L26.121,29.509z"/>
	<path fill="#FFFFFF" d="M26.121,29.509"/>
	<path fill="#FFFFFF" d="M23.568,25.041v3.351h2.89c0.26-1.032,0.414-2.167,0.451-3.351H23.568z"/>
	<path fill="#FFFFFF" d="M23.568,25.041"/>
</g>
</svg>
