<?xml version="1.0" encoding="utf-8"?>
<!-- Generator: Adobe Illustrator 17.0.0, SVG Export Plug-In . SVG Version: 6.00 Build 0)  -->
<!DOCTYPE svg PUBLIC "-//W3C//DTD SVG 1.1//EN" "http://www.w3.org/Graphics/SVG/1.1/DTD/svg11.dtd">
<svg version="1.1" id="Layer_1" xmlns="http://www.w3.org/2000/svg" xmlns:xlink="http://www.w3.org/1999/xlink" x="0px" y="0px"
	 width="46.846px" height="45.25px" viewBox="0 0 46.846 45.25" enable-background="new 0 0 46.846 45.25" xml:space="preserve">
<g>
	<g>
		<defs>
			<rect id="SVGID_1_" x="2.679" y="2.847" width="41.487" height="41.653"/>
		</defs>
		<clipPath id="SVGID_2_">
			<use xlink:href="#SVGID_1_"  overflow="visible"/>
		</clipPath>
		<path clip-path="url(#SVGID_2_)" fill="#ED1C24" d="M23.443,2.806c-11.467,0-20.764,9.297-20.764,20.764
			c0,11.467,9.297,20.764,20.764,20.764c11.467,0,20.764-9.297,20.764-20.764C44.207,12.102,34.91,2.806,23.443,2.806L23.443,2.806z
			 M23.444,10.099l12.287,7.662H11.156L23.444,10.099z M35.884,29.996h-0.001c0,1.23-0.996,2.225-2.225,2.225H13.229
			c-1.229,0-2.225-0.996-2.225-2.225V18.249c0-0.13,0.014-0.256,0.035-0.38l11.74,7.321c0.014,0.009,0.03,0.015,0.044,0.023
			c0.016,0.009,0.032,0.017,0.047,0.025c0.083,0.043,0.168,0.077,0.255,0.099c0.01,0.003,0.018,0.004,0.027,0.006
			c0.096,0.022,0.193,0.037,0.29,0.037h0.002c0.097,0,0.194-0.014,0.29-0.037c0.009-0.002,0.017-0.004,0.027-0.006
			c0.087-0.022,0.172-0.057,0.255-0.099c0.016-0.008,0.032-0.016,0.047-0.025c0.014-0.008,0.03-0.014,0.044-0.023l11.74-7.321
			c0.022,0.124,0.035,0.25,0.035,0.38V29.996z M35.884,29.996"/>
	</g>
</g>
</svg>
