<?xml version="1.0" encoding="utf-8"?>
<!-- Generator: Adobe Illustrator 17.0.0, SVG Export Plug-In . SVG Version: 6.00 Build 0)  -->
<!DOCTYPE svg PUBLIC "-//W3C//DTD SVG 1.1//EN" "http://www.w3.org/Graphics/SVG/1.1/DTD/svg11.dtd">
<svg version="1.1" id="Layer_1" xmlns="http://www.w3.org/2000/svg" xmlns:xlink="http://www.w3.org/1999/xlink" x="0px" y="0px"
	 width="514px" height="228.729px" viewBox="16.157 -40.729 514 228.729" enable-background="new 16.157 -40.729 514 228.729"
	 xml:space="preserve">
<g>
	<path fill="none" d="M177.497,84.054c0.416,1.464,2.045,4.649,3.402,6.59l7.692-14.856
		C181.914,74.539,175.253,76.082,177.497,84.054z"/>
	<g>
		<path fill="#A8C846" d="M71.749,30.32c-2.271,0.124-3.904,1.515-3.773,3.474c0.281,4.468,4.756,5.667,8.846,5.323
			C80.703,36.462,74.368,30.172,71.749,30.32z"/>
		<path fill="#A8C846" d="M70.238,39.907c1.597,1.373,2.692,3.704,4.846,3.993C73.743,42.045,72.228,40.512,70.238,39.907z"/>
		<path fill="#A8C846" d="M41.176,150.312c-0.362,0.927,0.86,1.868,1.637,2.081C42.443,151.358,42.267,149.944,41.176,150.312z"/>
		<path fill="#A8C846" d="M24.163,72.102c2.376-5.705-7.398-2.708-2.072,0.654L24.163,72.102z"/>
		<path fill="#A8C846" d="M75.712,61.268c-0.444,2.4,0.154,5.345,0.281,8.047c1.23-2.165,0.298-5.443,0.706-8.031
			C76.309,61.388,76.169,61.033,75.712,61.268z"/>
		<path fill="#A8C846" d="M47.962,94.805c-0.52-0.296-1.901-0.566-1.774,0.563C46.682,95.122,47.926,95.73,47.962,94.805z"/>
		<path fill="#A8C846" d="M43.153,108.365c-1.742-0.437-3.398-1.068-5.276-1.251C39.008,108.182,42.994,108.566,43.153,108.365z"/>
		<path fill="#A8C846" d="M38.701,138.413c-0.272-0.905-0.995-0.952-1.452-1.494c-1.149,0.231-1.657,0.785-1.393,1.745
			c0.312,0.817,1.52-0.079,1.651,1.103C38.049,138.904,36.995,139.083,38.701,138.413z"/>
		<path fill="#A8C846" d="M32.208,105.659c1.185,1.527,3.004,1.824,5.081,1.644C35.918,106.123,34.131,105.768,32.208,105.659z"/>
		<path fill="#A8C846" d="M81.789,69.103c-5.257-2.081-2.769,4.769-4.71,6.701c-0.485-1.516-0.05-1.461-0.353-3.142
			c-1.742,1.149,1.466,4.875-0.765,5.775c-1.43-1.703-2.448-4.187-5.049-3.602c-0.131,2.719,2.973,3.42,3.352,5.439
			c2.764-2.414,0.557,3.521-2.109,3.6c-0.896-0.023-1.072-1.43-2.448-0.527c0.471,2.348,2.954,6.063-0.968,6.165
			c-8.294-4.339-15.891-10.024-21.297-19.918c-3.538-1.049-6.217-13.024-11.008-12.125c-3.864,0.73-2.05,3.92-0.86,5.481
			c2.751,3.612,6.859,9.772,9.14,12.386c5.936,6.823,12.596,11.866,13.429,20.788c-0.661,5.011-6.859,3.719-10.443,2.991
			c-2.959-0.602-4.113-1.038-5.049-3.603c-5.407,0.425-9.384-4.428-14.57-2.855c5.651,6.74,14.936,6.448,21.917,10.613
			c0.574,1.909,2.244,4.235,1.963,6.206c-2.543-0.486-5.407-0.364-7.827-1.093c2.316,1.891,6.135,0.871,8.592,2.478
			c-4.701,6.104-15.732,6.877-22.243,5.76c-0.466-0.736,1.457-0.229,0.991-0.966c-2.082-0.098-1.752,1.787-3.67,2.791
			c0.063,0.362,0.316,0.821-0.01,0.982c3.226,4.566,11.61-0.812,16.266,1.016c-0.742,0.193-1.444,0.407-1.688,0.862
			c0.729,2.043,0.846,2.421,2.109,3.556c-2.986,2.898-3.398,7.133-6.221,10.115c0.81,0.407,2.24-1.412,3.14-0.35
			c-0.493,2.681-3.049,5.432-3.149,7.508c-2.077,1.966-4.986,3.508-6.262,5.891c4.122-2.369,10.09-7.049,11.922-10.617
			c1.773-0.095,3.379-1.468,4.606,0.165c-0.629-0.061-1.244-0.149-1.964-0.029c-0.149,0.857,1.118,1.228,0.471,1.481
			c-1.891,0.593-0.606,1.76-1.969,0.95c-0.091,2.027,3.271,1.203,4.778,1.732c-0.737,0.771-2.299,1.115-2.194,2.323
			c1.005-0.471,2.276-1.263,3.661-2.199l33.405-64.473C83.698,74.729,83.313,71.935,81.789,69.103z"/>
	</g>
	<g>
		<path fill="#802E8B" d="M69.563,154.642c0.946-0.658,0.647-1.968,1.018-2.927C69.631,152.376,69.934,153.687,69.563,154.642z"/>
		<path fill="#802E8B" d="M85.924,169.293c0.683,0.797-0.353,1.919,0.652,2.072C86.15,170.68,87.295,168.906,85.924,169.293z"/>
		<path fill="#802E8B" d="M69.342,156.009c-0.159-0.33-0.217-0.853-0.58-0.787c-0.376,3.339-3.253,5.393-2.584,9.277
			C67.975,162.058,68.192,158.791,69.342,156.009z"/>
		<path fill="#802E8B" d="M71.386,177.818c1.516,0.559,2.864,1.454,4.281,2.213c3.099-0.54,4.873-0.797,6.999-2.541
			c-0.258-2.606,1.792-4.013,2.638-6.044c-2.316-1.242-4.063-3.606-6.203-5.194C72.354,165.639,67.423,171.418,71.386,177.818z"/>
		<path fill="#802E8B" d="M56.569,150.634c-1.52,1.269-2.851,2.638-3.493,4.362C54.863,155.109,56.505,150.588,56.569,150.634z"/>
		<path fill="#802E8B" d="M87.951,169.483l0.724-1.409c-0.208-2.109-0.462-4.241-0.584-6.301c-0.539,0.242-0.756-0.125-1.276,0.081
			C85.729,163.76,87.354,166.742,87.951,169.483z"/>
		<path fill="#802E8B" d="M53.048,156.954c0.438,0.887-0.702,0.961-0.031,1.962C54.062,158.943,53.886,156.335,53.048,156.954z"/>
		<path fill="#802E8B" d="M118.049,23.435c-2.471-0.149-3.765,1.432-3.285,2.989C115.85,29.887,121.9,26.58,118.049,23.435z"/>
		<path fill="#802E8B" d="M132.409,74.831c1.312-0.554,2.113-1.373,1.711-2.819C132.446,72.378,131.808,73.281,132.409,74.831z"/>
		<path fill="#802E8B" d="M125.265,40.012c0.575,3.762,5.873,0.954,3.063-1.624C127.093,38.226,125.356,38.883,125.265,40.012z"/>
		<path fill="#802E8B" d="M118.858,77.403c-1.176-4.516-7.691-4.281-4.918,1.561C115.357,80.091,118.352,79.141,118.858,77.403z"/>
		<path fill="#802E8B" d="M122.587,32.301c-0.747,0.267-1.281,0.127-1.81-0.025c-0.642,1.304-0.371,7.364,2.624,6.384
			C125.265,37.645,122.895,34.44,122.587,32.301z"/>
		<path fill="#802E8B" d="M140.84,61.402c-1.059,0.817-1.833,1.787-1.317,3.427c0.457,0.81,1.126,1.233,1.86,1.522l2.398-4.64
			C142.965,61.298,142.025,61.11,140.84,61.402z"/>
		<path fill="#802E8B" d="M97.842,145.876c-0.045,0.991-0.14,1.952-0.317,2.876l1.298-0.247l1.982-3.841
			C99.711,145.191,98.697,145.654,97.842,145.876z"/>
		<path fill="#802E8B" d="M114.76,85.321c0.977,6.084-7.751,4.328-8.479,9.31c-1.005-0.335-2.466-1.488-3.923-2.62
			c1.393-2.703,2.461-5.522,4.416-7.742c1.575-1.782,3.285-3.704,2.543-6.336c-4.217-2.952-4.859,3.624-8.995,4.481
			c-3,2.64-3.33,6.674-6.511,9.223c0.33-0.679-0.254-2.303-1.244-1.882c-1.389,0.688,0.896,2.315,0.457,2.457
			c-1.778,0.369-1.407-1.909-2.213-2.873c-1.149-1.378-3.063-1.779-2.778-4.649c0.272-0.301,0.642-0.557,1.018-0.805
			c0.57,1.233,1.366,2.023,2.118,2.914c2.104-0.434,3.063-1.459,2.579-3.232c-0.955-1.084-2.425-1.165-3.901-1.244
			c-0.39-1.697,0.194-4.169-2.118-3.714c-0.629,0.658,0.163,2.057-0.824,2.536c-1.041-1.212-1.697-2.477-2.199-3.785L51.3,141.831
			c2.068-1.4,4.407-3.125,6.543-4.618c2.058-1.439,5.425-3.941,6.877-0.885c1.108,2.335-1.715,3.068-1.841,5.47
			c1.344,0.559,1.325-2.387,2.669-1.826c0.683,3.807-1.426,7.44-3.484,10.543c-2.968,4.472-7.185,9.323-4.139,14.644
			c1.651,0.068,3.23-0.228,4.827-1.197c0.973-3.324,3.474-6.642,4.855-10.325c1.095-2.905,0.896-6.576,3.841-7.402
			c-0.303,1.247-1.022,2.272-0.747,3.814c2.593-1.229,1.113-6.655,3.755-8.672c1.643,2.369-1.706,4.19-0.692,7.049
			c2.593-1.868,0.982-5.916,3.352-7.898c2.059,1.597,4.471,2.489,6.312,4.502c0.72,3.921,1.81,7.837,2.769,11.812
			c1.48-2.525-2.267-7.759-0.249-10.009c0.683,2.645,1.412,5.229,3.963,4.278c1.606-1.063,0.335-3.617,0.177-5.593
			c1.136-1.411,2.349-1.922,4.064-2.59c0.254-1.799-0.109-4.532,1.732-4.781c-0.407-1.9-1.031-2.376-0.149-3.531
			c2.791-0.611,4.298,1.247,6.049,2.64c0.905,0.099,1.746,0.302,2.566,0.561l11.863-22.899l-34.739-4.303l5.764-5.169l35.587-3.283
			l12.383-23.897C127.628,78.634,120.085,81.577,114.76,85.321z"/>
		<path fill="#802E8B" d="M91.444,151.375c-0.393-0.142-0.751-0.224-1.059-0.206c-2.281,0.129-3.905,1.518-3.778,3.474
			c0.221,3.531,3.072,5.018,6.275,5.318l2.756-5.323l-5.167-2.104L91.444,151.375z"/>
	</g>
	<g>
		<path fill="#2EA5DD" d="M208.79,26.793c-6.267-0.568-10.941,4.357-8.434,10.178c-0.01,0.267,0.077,0.485,0.298,0.632
			c0,0,0-0.007,0.01-0.014c0.126,0.254,0.249,0.509,0.407,0.765c1.515,0.561,2.859,1.457,4.285,2.22
			c0.593-0.105,1.131-0.2,1.637-0.296l5.334-10.294C211.156,28.908,210.038,27.717,208.79,26.793z"/>
		<path fill="#2EA5DD" d="M88.15,171.194c0,0.968-0.706,1.922-0.729,2.832c-0.032,1.882,0.597,3.522,0.615,5.006
			c1.253-3.115,1.031-6.993,0.638-10.958l-0.724,1.409C88.073,170.064,88.159,170.641,88.15,171.194z"/>
		<path fill="#2EA5DD" d="M178.475,41.636c-1.973,1.82-2.023,3.436-5.488,3.542c-0.389-1.912,0.136-4.683-2.859-3.298
			c0.258,4.536,1.498,9.932-3.8,12.635c0.349,1.708,1.95,4.061,0.285,4.719c-3.796-0.887-8.769,0.493-12.692-0.186
			c-0.855,2.445-1.497,5.004-4.611,6.285c-2.299-0.33-3.575-2.631-5.529-3.622l-2.398,4.64c1.539,0.613,3.371,0.656,4.245,2.552
			c-2.475,2.523-0.254,7.48-2.859,9.932c-2.466-0.525-5.013-0.688-7.556-0.566l-12.383,23.897l14.067-1.298
			c0,0,16.619-25.079,23.487-20.243c6.869,4.832-11.112,29.496-11.112,29.496l7.212,27.641l24.419-47.117
			c-1.357-1.941-2.986-5.126-3.402-6.59c-2.244-7.972,4.416-9.515,11.094-8.266l11.786-22.746c-0.249-0.765-0.574-1.565-1-2.398
			c-1.022-1.986-3.443-2.267-3.746-4.228c-0.583-3.697,3.633-4.642,3.009-7.575c-1.805,1.957-2.597,4.441-5.344,5.909
			C188.389,43.643,185.402,38.835,178.475,41.636z"/>
		<path fill="#2EA5DD" d="M116.216,114.921l-11.863,22.899c1.8,0.581,3.434,1.494,5.031,2.482c-0.086,0.505-0.108,1.011-0.086,1.52
			c-2.778-0.082-5.891,1.582-8.492,2.842l-1.982,3.841l11.262-2.138l16.284-30.189L116.216,114.921z"/>
		<path fill="#2EA5DD" d="M116.379,150.797l1.294,11.535c1.181-1.297,2.411-2.567,4.108-3.597c-0.262-0.41-0.475-0.79-0.679-1.165
			c1.488,0.384,2.796,1.134,3.633,2.79c0.485,1.78-2.159,3.312-0.421,4.346c3.624-1.233,8.705-2.844,9.185,4.305
			c2.724-1.97,5.433-4.136,7.823-1.984l8.606-16.61l-11.515-25.765L116.379,150.797z"/>
		<path fill="#2EA5DD" d="M95.639,154.641l-2.756,5.323c0.846,0.077,1.715,0.082,2.57,0.01c0.873-0.595,1.221-1.38,1.221-2.227
			c0.231,1.324,0.068,2.788-0.33,4.251c3.244,0.495,4.692,4.452,7.348,6.09c1.461-1.606,5.316-0.309,7.619-0.615
			c0.53-0.231,1.009-0.488,1.461-0.763l-7.013-7.948L95.639,154.641z"/>
	</g>
	<g>
		<path fill="#A8C846" d="M212.327,29.982l-5.334,10.294c2.14-0.4,3.642-0.839,5.366-2.253c-0.262-2.6,1.782-4.011,2.629-6.043
			C214.025,31.463,213.156,30.752,212.327,29.982z"/>
		<path fill="#A8C846" d="M190.673,76.268c1.769-3.6,5.552-7.726,9.189-8.934c-0.221-4.647,2.344-8.645,0.516-14.291l-11.786,22.746
			C189.284,75.919,189.981,76.079,190.673,76.268z"/>
		<path fill="#A8C846" d="M187.805,99.436c-0.896-0.914-2.697-0.095-3.059-2.041c2.503-3.382-1.977-4.567-3-5.662
			c-0.258-0.274-0.547-0.649-0.846-1.088l-24.419,47.117l5.253,20.094l-4.316,8.859c0.593,0.376,1.212,0.713,2.027,0.678
			c1.918-0.683,1.344-2.654,3.85-3.034c1.869-0.36,2.027,2.563,4.145,1.694c0.054-2.258-0.978-5.074,2.443-5.581
			c1.773,0.092,1.62,3.908,4.317,2.237l-1.562-4.92c1.76-0.462,1.362-2.034,3.474-2.309c2.249-0.801,2.701,1.834,5.067,0.801
			c0.615-1.167-1.217-2.129-1.385-4.371c2.271-2.472,4.891-5.108,9.144-5.307c0.774-2.83-0.832-4.253-1.172-7.45
			c1.629-4.186,7.14-6.353,7.239-11.323c-1.76,0.751-2.452-0.559-3.806-0.602c-3.054-4.932,1.882-5.724,1.945-9.036
			c-0.986-1.036-2.986-0.111-3.977-1.147c-0.855-2.574-1.977-5.289-0.262-6.536c1.447-0.459,3.181-0.778,3.647-1.755
			c0.434-2.294-0.842-1.936-1.76-3.651c2.045-1.226,4.004-2.496,6.04-3.726c-0.764-2.221,1.488-2.878,0.077-5.433
			C193.46,94.824,190.827,97.399,187.805,99.436z"/>
		<path fill="#A8C846" d="M141.323,167.027c0.298,0.269,0.597,0.602,0.882,1.022c0.136,1.464-1.403,4.41-0.24,4.893
			c0.652-3.547,5.67-4.355,8.19-2.604c1.371-1.271,0.941-3.466,3.507-4.125c1.602-0.763,2.547-0.248,3.466,0.324l-7.198-16.121
			L141.323,167.027z"/>
		<path fill="#A8C846" d="M157.308,166.936l0.109-0.221c-0.099-0.059-0.19-0.115-0.289-0.177L157.308,166.936z"/>
	</g>
</g>
<g>
	<g>
		<path fill="#1B75BB" stroke="#1B75BB" stroke-width="0.25" stroke-miterlimit="10" d="M250.608,94.186
			c0,6.052-0.602,10.788-2.103,14.122c-2.7,6.226-7.2,10.348-20.095,14.119c-1.501-0.439-2-2.105-1.398-2.893
			c2.098-0.967,3.996-2.281,4.898-3.159c3.899-3.421,5.695-9.647,5.695-20.347v-20.61c0-3.508,0-4.562-1.898-5.613l-1.398-0.789
			c-0.699-0.528-0.699-2.107,0-2.633c4.7-1.141,11.696-3.508,14.798-5.088c0.796,0,1.398,0.265,1.796,0.791
			c-0.199,2.631-0.296,6.491-0.296,10.436L250.608,94.186L250.608,94.186z M251.404,49.017c0,4.21-3.699,6.402-7.496,6.402
			c-4.399,0-7.001-2.631-7.001-6.226c0-3.861,3.501-6.404,7.501-6.404C248.608,42.79,251.404,45.51,251.404,49.017z"/>
		<path fill="#1B75BB" stroke="#1B75BB" stroke-width="0.25" stroke-miterlimit="10" d="M307.311,87.258
			c0,5.175,0.296,7.453,2.7,7.453c1.296,0,2.796-0.349,3.996-0.702c0.903,0.176,1,3.335-0.296,3.771
			c-9.803,0.352-18.197,3.159-18.498,3.159c-0.699-0.087-1.102-0.525-1.199-1.051c0.199-1.054,0.296-2.457,0.296-3.159
			c0-0.525-0.5-0.878-1.097-0.878c-3.899,2.194-7.399,4.21-13.599,4.21c-8.297,0-11.696-3.771-11.696-11.226v-14.91
			c0-4.647-0.602-5.085-3-5.7l-1.301-0.349c-0.699-0.791-0.597-2.457,0.403-3.069c3.297-0.089,6.797-0.352,9.696-0.791
			c3-0.439,5.899-1.49,6.302-1.49c0.597,0,1.097,0.613,1.199,1.051c-0.204,2.194-0.301,4.562-0.301,7.718v14.471
			c0,4.21,0.699,7.894,7.098,7.894c2.802,0,4.399-1.141,5.2-1.666c0.699-0.439,1.097-1.755,1.097-2.633V72.787
			c0-3.508-0.699-4.299-4.296-4.738l-1.398-0.173c-0.801-0.615-0.704-2.72,0.5-3.069c3.597-0.176,7.195-0.528,10.395-0.878
			c3.501-0.439,6.501-1.403,7.098-1.403c0.403,0,0.903,0.439,1,1.051c-0.097,1.579-0.296,4.472-0.296,7.718v15.963H307.311z"/>
		<path fill="#1B75BB" stroke="#1B75BB" stroke-width="0.25" stroke-miterlimit="10" d="M325.324,75.417
			c0-3.508,0-4.562-1.903-5.613l-1.398-0.789c-0.699-0.528-0.699-2.107,0-2.633c4.098-1.051,11.599-3.858,14.4-5.524
			c0.699-0.089,1.699,0.263,2.098,1.051c-0.199,1.054-0.199,2.018-0.199,2.896c0,0.613,0.398,1.138,0.801,1.227
			c2.995-1.317,7.399-3.508,12.696-3.508c10.599,0,16.998,7.279,16.998,16.75c0,12.28-9.9,20.787-24.494,20.787
			c-1.403,0-3.603-0.087-4.501-0.263c-0.903,0.176-1.501,0.702-1.501,2.544v8.682c0,6.138,0.398,6.84,3.699,7.106l3.399,0.263
			c0.801,0.525,0.801,2.544-0.102,3.069c-4.996-0.176-8.996-0.263-13.696-0.263c-4.399,0-8.297,0.087-11.9,0.263
			c-0.898-0.525-0.898-2.544-0.097-3.069l2-0.176c3.297-0.263,3.699-1.054,3.699-7.192L325.324,75.417L325.324,75.417z
			 M338.321,88.925c0,1.929,0.801,3.771,2.301,5.085c1.296,1.23,3.199,2.018,4.796,2.018c6.2,0,9.598-5.789,9.598-13.946
			c0-8.593-4.796-13.505-11.399-13.505c-1.699,0-3.399,0.349-4.199,1.227c-0.5,0.525-1.097,1.666-1.097,5.088V88.925z"/>
		<path fill="#1B75BB" stroke="#1B75BB" stroke-width="0.25" stroke-miterlimit="10" d="M396.33,88.661
			c0,6.138,0.398,6.927,3.699,7.19l1.898,0.176c0.801,0.525,0.801,2.544-0.097,3.069c-3.501-0.176-7.399-0.263-12.002-0.263
			c-4.496,0-8.695,0.087-11.996,0.263c-0.898-0.525-0.898-2.544-0.097-3.069l1.898-0.176c3.302-0.263,3.699-1.051,3.699-7.19V75.417
			c0-3.508,0-4.562-1.898-5.613l-1.403-0.789c-0.699-0.528-0.699-2.107,0-2.633c4.7-1.141,11.798-3.508,14.798-5.088
			c0.801,0,1.398,0.265,1.801,0.791c-0.199,2.631-0.301,6.491-0.301,10.436L396.33,88.661L396.33,88.661z M397.131,49.017
			c0,4.21-3.699,6.402-7.501,6.402c-4.399,0-6.996-2.631-6.996-6.226c0-3.861,3.495-6.404,7.496-6.404
			C394.33,42.79,397.131,45.51,397.131,49.017z"/>
		<path fill="#1B75BB" stroke="#1B75BB" stroke-width="0.25" stroke-miterlimit="10" d="M428.636,68.487
			c-1.296,0-1.398,0.089-1.398,2.018v13.155c0,4.911,0,10.348,6.996,10.348c1.403,0,3-0.613,4.2-1.314
			c1,0.263,1.603,1.227,1.403,2.279c-2.802,2.633-8.2,5.088-14.4,5.088c-8.297,0-11.196-4.21-11.196-9.996v-19.56
			c0-1.842-0.102-2.018-1.903-2.018h-3.097c-1.097-0.349-1.398-2.105-0.602-2.717c3.102-0.965,5.904-2.544,8.302-3.947
			c1.796-1.141,4.296-2.983,7.399-6.84c0.699-0.352,2.5-0.265,3,0.437V62c0,1.666,0.097,1.752,1.898,1.752h8.899
			c0.5,0.349,0.796,0.878,0.796,1.666c0,0.965-0.296,2.544-1.296,3.069L428.636,68.487L428.636,68.487z"/>
		<path fill="#1B75BB" stroke="#1B75BB" stroke-width="0.25" stroke-miterlimit="10" d="M459.845,78.048
			c-2.301,0-2.5,0.176-2.5,1.579c0,6.578,4.802,12.979,14.099,12.979c2.796,0,6.598-0.525,9.298-4.559
			c1.097-0.176,2.598,0.525,2.598,2.018c-4.098,7.453-11.497,9.996-17.493,9.996c-13.502,0-20.799-8.33-20.799-17.891
			c0-11.053,9.099-19.646,21.595-19.646c10.4,0,15.997,5.876,15.997,12.63c0,1.666-0.5,2.893-3.597,2.893H459.845z M466.443,74.19
			c1.398,0,3-0.176,4.098-0.791c0.5-0.263,0.704-1.141,0.704-2.016c0-2.896-1.903-4.824-5.302-4.824
			c-4.199,0-7.797,3.508-7.797,6.315c0,1.227,1.398,1.317,4.598,1.317H466.443z"/>
		<path fill="#1B75BB" stroke="#1B75BB" stroke-width="0.25" stroke-miterlimit="10" d="M495.254,75.593
			c0-3.508,0-4.562-1.898-5.613l-1.403-0.791c-0.699-0.525-0.699-2.105,0-2.631c4.603-1.141,11.501-3.508,14.599-5.264
			c0.801,0,1.398,0.265,1.801,0.791c-0.204,1.752-0.404,2.983-0.404,3.771c0,0.615,0.199,0.878,1,1.051
			c2.7-1.49,5.598-4.383,9.798-4.383c2.7,0,5.501,1.842,5.501,5.175c0,4.034-3.199,5.7-6.399,5.7c-1.398,0-2.598-0.525-3.899-1.576
			c-2.301-1.669-3.199-1.755-3.801-1.755c-1.398,0-1.898,1.929-1.898,5.261v13.334c0,6.138,0.398,6.84,3.699,7.103l3.2,0.263
			c0.801,0.525,0.801,2.544-0.102,3.069c-4.796-0.176-8.797-0.263-13.497-0.263c-4.098,0-8.497,0.087-11.798,0.263
			c-0.898-0.525-0.898-2.544-0.097-3.069l1.898-0.176c3.297-0.263,3.699-1.051,3.699-7.19L495.254,75.593L495.254,75.593z"/>
		<path fill="#FFFFFF" d="M234.932,158.594c0,4.606,0.077,5.261,2.419,5.481l1.291,0.132c0.24,0.176,0.159,0.965-0.082,1.097
			c-2.301-0.089-3.669-0.132-5.286-0.132c-1.612,0-3.026,0.044-5.608,0.132c-0.24-0.132-0.322-0.878,0-1.097l1.454-0.132
			c2.302-0.22,2.5-0.875,2.5-5.481v-19.602c0-1.36,0-1.403-1.21-1.403h-2.22c-1.735,0-3.955,0.087-4.96,1.097
			c-0.97,0.965-1.373,1.929-1.817,3.026c-0.322,0.263-0.888,0.044-1.051-0.309c0.648-1.972,1.251-4.779,1.536-6.534
			c0.123-0.087,0.643-0.13,0.765,0c0.24,1.403,1.572,1.36,3.429,1.36h16.34c2.179,0,2.541-0.087,3.149-1.227
			c0.199-0.087,0.643-0.044,0.724,0.132c-0.444,1.796-0.724,5.348-0.607,6.664c-0.159,0.352-0.847,0.352-1.046,0.087
			c-0.123-1.095-0.403-2.717-1.01-3.199c-0.929-0.745-2.459-1.097-4.68-1.097h-2.863c-1.21,0-1.169,0.044-1.169,1.49V158.594z"/>
		<path fill="#FFFFFF" d="M246.479,152.585c0-1.71,0-1.929-1.092-2.717l-0.363-0.265c-0.159-0.173-0.159-0.655,0.041-0.789
			c0.929-0.349,3.067-1.49,4.077-2.148c0.199,0.044,0.322,0.13,0.322,0.306v2.544c0,0.22,0.041,0.352,0.123,0.396
			c1.408-1.273,2.945-2.633,4.435-2.633c1.01,0,1.817,0.704,1.817,1.755c0,1.447-1.087,2.018-1.735,2.018
			c-0.403,0-0.607-0.132-0.888-0.309c-0.602-0.439-1.21-0.702-1.776-0.702c-0.643,0-1.128,0.396-1.449,0.878
			c-0.404,0.615-0.525,1.886-0.525,3.375v5.965c0,3.159,0.082,3.684,1.612,3.814l1.454,0.132c0.281,0.22,0.199,0.965-0.082,1.097
			c-1.898-0.089-3.067-0.132-4.48-0.132c-1.449,0-2.659,0.044-3.71,0.132c-0.281-0.132-0.363-0.878-0.082-1.097l0.765-0.132
			c1.495-0.263,1.536-0.655,1.536-3.814L246.479,152.585L246.479,152.585z"/>
		<path fill="#FFFFFF" d="M266.534,156.093c0.602-0.22,0.684-0.613,0.684-1.271l0.041-2.018c0.041-1.623-0.444-3.814-2.945-3.814
			c-1.128,0-2.5,0.613-2.582,1.972c-0.041,0.702-0.082,1.23-0.403,1.493c-0.607,0.525-1.694,0.831-2.301,0.831
			c-0.363,0-0.561-0.22-0.561-0.613c0-2.281,4.557-5.396,7.501-5.396c2.904,0,4.317,1.842,4.194,5.131l-0.24,7.631
			c-0.082,2.018,0.281,3.814,1.857,3.814c0.404,0,0.765-0.13,1.006-0.263c0.204-0.13,0.404-0.306,0.525-0.306
			c0.163,0,0.281,0.263,0.281,0.569c0,0.22-1.408,1.931-3.388,1.931c-0.97,0-1.934-0.396-2.623-1.36
			c-0.159-0.263-0.404-0.615-0.643-0.615c-0.286,0-0.765,0.396-1.572,0.878c-0.888,0.525-1.776,1.097-2.909,1.097
			c-1.169,0-2.138-0.352-2.822-1.01c-0.765-0.745-1.251-1.842-1.251-3.069c0-1.71,0.765-2.717,3.347-3.727L266.534,156.093z
			 M264.033,163.812c0.806,0,2.057-0.658,2.459-1.097c0.485-0.525,0.485-1.138,0.525-2.059l0.077-2.587
			c0-0.482-0.159-0.572-0.404-0.572c-0.24,0-0.924,0.176-1.653,0.439c-2.378,0.878-3.552,1.536-3.552,3.245
			C261.488,161.926,261.972,163.812,264.033,163.812z"/>
		<path fill="#FFFFFF" d="M277.633,152.235c-0.602-1.623-0.965-3.026-2.419-3.245l-0.806-0.132
			c-0.245-0.349-0.204-0.965,0.123-1.095c1.006,0.087,2.419,0.13,3.792,0.13c1.087,0,1.893-0.044,3.266-0.13
			c0.281,0.173,0.322,0.875,0.041,1.095l-0.485,0.089c-1.251,0.22-1.291,0.439-0.888,1.752c0.929,3.026,2.098,6.095,3.026,8.376
			c0.362,0.878,0.525,1.271,0.648,1.403c0.159-0.132,0.444-0.745,0.765-1.666l2.302-6.448c0.561-1.534,0.724-2.455,0.724-2.717
			c0-0.396-0.245-0.572-0.724-0.658l-0.929-0.132c-0.245-0.306-0.204-0.921,0.082-1.095c1.251,0.087,2.255,0.13,3.026,0.13
			c1.006,0,1.694-0.044,2.822-0.13c0.281,0.173,0.322,0.831,0.082,1.095l-0.607,0.089c-1.413,0.22-1.776,1.358-2.945,3.814
			c-0.566,1.183-3.067,7.542-3.71,9.341c-0.404,1.097-0.806,2.105-1.332,3.595c-0.082,0.132-0.245,0.176-0.404,0.176
			c-0.204,0-0.403-0.044-0.525-0.176c-0.322-1.227-0.929-2.937-1.536-4.559L277.633,152.235z"/>
		<path fill="#FFFFFF" d="M297.814,153.945c-1.051,0-1.092,0.087-1.092,1.184c0,4.43,2.383,8.2,6.7,8.2
			c1.332,0,2.459-0.439,3.71-2.148c0.403-0.132,0.688,0.13,0.724,0.525c-1.326,2.983-4.235,4.08-6.333,4.08
			c-2.623,0-4.68-1.23-5.848-2.896c-1.21-1.71-1.694-3.771-1.694-5.7c0-5.393,3.266-9.912,8.109-9.912c3.47,0,5.731,2.59,5.731,5.22
			c0,0.613-0.082,0.965-0.163,1.141c-0.123,0.263-0.684,0.306-2.383,0.306L297.814,153.945L297.814,153.945L297.814,153.945z
			 M300.315,152.628c2.986,0,3.873-0.173,4.194-0.437c0.123-0.089,0.245-0.266,0.245-0.834c0-1.227-0.77-2.763-3.108-2.763
			c-2.383,0-4.439,2.368-4.48,3.814c0,0.089,0,0.22,0.286,0.22H300.315L300.315,152.628z"/>
		<path fill="#FFFFFF" d="M316.134,160.26c0,3.159,0.082,3.595,1.531,3.814l0.97,0.132c0.281,0.22,0.204,0.965-0.082,1.097
			c-1.332-0.089-2.5-0.132-3.914-0.132c-1.449,0-2.664,0.044-3.873,0.132c-0.281-0.132-0.363-0.878-0.082-1.097l0.929-0.132
			c1.495-0.22,1.536-0.655,1.536-3.814v-19.822c0-2.587-0.041-2.85-1.251-3.638l-0.404-0.263c-0.204-0.132-0.204-0.748,0-0.878
			c1.006-0.352,2.904-1.01,4.353-1.842c0.163,0,0.327,0.087,0.408,0.263c-0.041,1.317-0.123,3.508-0.123,5.437V160.26z"/>
		<path fill="#FFFFFF" d="M336.912,142.805c0-4.559-0.082-5.217-2.459-5.524l-0.648-0.089c-0.24-0.173-0.159-0.965,0.082-1.095
			c1.735,0.087,3.108,0.13,4.761,0.13h7.582c2.582,0,4.965,0,5.45-0.13c0.24,0.745,0.485,3.901,0.643,5.833
			c-0.159,0.263-0.806,0.349-1.006,0.087c-0.607-2.062-0.97-3.595-3.067-4.166c-0.847-0.22-2.138-0.263-3.914-0.263h-2.909
			c-1.21,0-1.21,0.087-1.21,1.755v8.769c0,1.227,0.123,1.227,1.332,1.227h2.342c1.694,0,2.945-0.087,3.429-0.263
			c0.485-0.176,0.765-0.439,0.97-1.534l0.322-1.799c0.199-0.263,0.888-0.263,1.046,0.044c0,1.054-0.159,2.763-0.159,4.43
			c0,1.579,0.159,3.245,0.159,4.21c-0.159,0.306-0.847,0.306-1.046,0.044l-0.363-1.71c-0.163-0.789-0.444-1.447-1.251-1.666
			c-0.566-0.176-1.536-0.22-3.108-0.22h-2.342c-1.21,0-1.332,0.044-1.332,1.183v6.182c0,2.324,0.123,3.817,0.77,4.562
			c0.479,0.525,1.326,1.007,4.878,1.007c3.108,0,4.276-0.176,5.164-0.658c0.725-0.439,1.817-1.972,2.868-4.254
			c0.281-0.22,0.847-0.087,1.006,0.309c-0.281,1.534-1.291,4.909-1.817,6.095c-3.628-0.089-7.221-0.132-10.808-0.132h-3.633
			c-1.735,0-3.108,0.044-5.486,0.132c-0.245-0.132-0.327-0.834-0.082-1.097l1.332-0.132c2.296-0.22,2.5-0.875,2.5-5.481
			L336.912,142.805L336.912,142.805z"/>
		<path fill="#FFFFFF" d="M359.641,150.876c-0.607-0.965-1.291-1.666-2.423-1.886l-0.643-0.132c-0.24-0.22-0.204-0.965,0.082-1.095
			c1.572,0.087,2.5,0.13,3.511,0.13c0.965,0,1.853-0.044,3.429-0.13c0.281,0.173,0.281,0.875,0.041,1.095l-0.607,0.132
			c-1.087,0.22-1.051,0.482-0.363,1.534l1.934,3.072c0.163,0.263,0.403,0.613,0.525,0.745c0.163-0.132,1.495-2.324,2.342-3.728
			c0.684-1.141,0.561-1.36-0.327-1.623l-0.479-0.132c-0.245-0.263-0.163-0.965,0.159-1.095c0.929,0.087,1.98,0.13,2.945,0.13
			c0.929,0,2.179-0.044,2.945-0.13c0.327,0.173,0.327,0.875,0.082,1.095l-0.602,0.132c-0.97,0.22-1.576,0.349-2.021,0.745
			c-0.684,0.615-2.179,2.631-3.792,4.999c-0.485,0.702-0.485,0.834,0.041,1.623l3.751,5.745c0.929,1.403,1.576,1.972,2.664,2.062
			l0.648,0.044c0.24,0.263,0.199,0.965-0.082,1.097c-1.495-0.089-2.827-0.132-3.996-0.132c-1.49,0-2.541,0.044-3.833,0.132
			c-0.322-0.132-0.403-0.878-0.123-1.097l1.174-0.132c1.169-0.13,1.21-0.525,0.684-1.314l-2.098-3.289
			c-0.485-0.791-0.724-1.141-0.888-1.273c-0.123,0.132-0.444,0.572-0.725,1.054l-1.694,2.893c-0.811,1.403-0.888,1.755,0.118,1.929
			l0.688,0.132c0.24,0.22,0.199,0.965-0.082,1.097c-1.01-0.089-2.016-0.132-2.986-0.132c-1.01,0-1.898,0.044-2.945,0.132
			c-0.327-0.176-0.363-0.921-0.082-1.097l0.929-0.176c0.724-0.13,1.291-0.482,2.016-1.317c0.847-0.965,2.664-3.901,3.592-5.128
			c0.363-0.485,0.444-0.658,0.118-1.141L359.641,150.876z"/>
		<path fill="#FFFFFF" d="M378.169,140.438c0-2.587-0.041-2.85-1.251-3.638l-0.403-0.263c-0.204-0.132-0.204-0.748,0-0.878
			c1.006-0.352,2.904-1.01,4.353-1.842c0.163,0,0.327,0.087,0.408,0.263c-0.041,1.317-0.123,3.508-0.123,5.437v9.21
			c0,0.393,0.041,0.745,0.159,0.831c1.454-1.227,3.393-2.281,5.45-2.281c3.833,0,5.205,2.59,5.205,5.659v7.323
			c0,3.159,0.082,3.641,1.531,3.814l1.092,0.132c0.281,0.22,0.199,0.965-0.082,1.097c-1.454-0.089-2.623-0.132-4.037-0.132
			c-1.449,0-2.664,0.044-3.751,0.132c-0.281-0.132-0.363-0.878-0.082-1.097l0.806-0.132c1.495-0.263,1.536-0.655,1.536-3.814v-6.272
			c0-2.807-1.251-4.692-3.833-4.692c-1.373,0-2.423,0.525-3.149,1.184c-0.725,0.658-0.847,0.878-0.847,2.411v7.368
			c0,3.159,0.082,3.595,1.531,3.814l0.847,0.132c0.286,0.176,0.204,0.965-0.082,1.097c-1.21-0.089-2.378-0.132-3.792-0.132
			c-1.449,0-2.664,0.044-3.955,0.132c-0.281-0.132-0.363-0.878-0.077-1.097l1.006-0.132c1.495-0.173,1.536-0.655,1.536-3.814
			L378.169,140.438L378.169,140.438z"/>
		<path fill="#FFFFFF" d="M400.402,152.585c0-1.71,0-1.929-1.092-2.717l-0.362-0.265c-0.159-0.173-0.159-0.655,0.041-0.789
			c0.929-0.349,3.23-1.49,4.153-2.148c0.204,0,0.368,0.087,0.408,0.263c-0.082,1.536-0.163,3.641-0.163,5.437v7.894
			c0,3.159,0.082,3.595,1.531,3.814l0.847,0.132c0.286,0.22,0.204,0.965-0.077,1.097c-1.215-0.089-2.383-0.132-3.797-0.132
			c-1.449,0-2.659,0.044-3.792,0.132c-0.281-0.132-0.363-0.878-0.082-1.097l0.847-0.132c1.495-0.22,1.536-0.655,1.536-3.814
			L400.402,152.585L400.402,152.585L400.402,152.585z M403.749,140.088c0,1.576-1.01,2.281-2.138,2.281
			c-1.251,0-2.057-1.01-2.057-2.194c0-1.447,0.97-2.368,2.179-2.368C402.943,137.807,403.749,138.859,403.749,140.088z"/>
		<path fill="#FFFFFF" d="M410.899,140.438c0-2.587-0.041-2.85-1.251-3.638l-0.404-0.263c-0.204-0.132-0.204-0.748,0-0.878
			c0.929-0.396,2.863-0.965,4.399-1.842c0.159,0,0.322,0.087,0.404,0.263c-0.082,1.536-0.163,3.508-0.163,5.437v8.289
			c0,0.745,0.163,0.921,0.404,0.921c1.051-0.658,2.664-1.449,4.639-1.449c4.603,0,7.705,3.773,7.705,8.596
			c0,5.833-3.873,9.912-9.277,9.912c-1.495,0-2.623-0.309-3.429-0.572c-0.847-0.306-1.373-0.569-1.694-0.569
			s-0.648,0.349-0.847,0.658c-0.041,0.044-0.082,0.044-0.163,0.044c-0.159,0-0.322-0.089-0.404-0.263
			c0.041-0.615,0.082-1.449,0.082-3.728v-20.917H410.899z M413.884,159.209c0,1.534,0.322,2.893,1.01,3.814
			c0.684,0.921,1.776,1.447,3.067,1.447c3.792,0,5.282-3.508,5.282-7.279c0-4.516-2.138-8.024-6.129-8.024
			c-1.215,0-2.179,0.306-2.745,0.702c-0.403,0.306-0.485,0.789-0.485,2.498L413.884,159.209L413.884,159.209z"/>
		<path fill="#FFFFFF" d="M433.055,152.585c0-1.71,0-1.929-1.092-2.717l-0.363-0.265c-0.159-0.173-0.159-0.655,0.041-0.789
			c0.929-0.349,3.23-1.49,4.153-2.148c0.204,0,0.368,0.087,0.404,0.263c-0.077,1.536-0.159,3.641-0.159,5.437v7.894
			c0,3.159,0.082,3.595,1.531,3.814l0.847,0.132c0.286,0.22,0.204,0.965-0.077,1.097c-1.215-0.089-2.383-0.132-3.797-0.132
			c-1.449,0-2.659,0.044-3.792,0.132c-0.281-0.132-0.363-0.878-0.082-1.097l0.847-0.132c1.495-0.22,1.536-0.655,1.536-3.814
			L433.055,152.585L433.055,152.585L433.055,152.585z M436.402,140.088c0,1.576-1.01,2.281-2.138,2.281
			c-1.251,0-2.057-1.01-2.057-2.194c0-1.447,0.97-2.368,2.179-2.368C435.596,137.807,436.402,138.859,436.402,140.088z"/>
		<path fill="#FFFFFF" d="M447.777,149.735c-0.684,0-0.725,0.132-0.725,1.054v8.2c0,2.541,0.281,4.865,2.945,4.865
			c0.404,0,0.765-0.087,1.087-0.22c0.368-0.13,0.888-0.613,1.01-0.613c0.322,0,0.485,0.482,0.404,0.745
			c-0.725,0.921-2.179,2.018-4.235,2.018c-3.47,0-4.194-2.105-4.194-4.738v-10.043c0-1.183-0.041-1.271-0.847-1.271h-1.133
			c-0.24-0.176-0.281-0.658-0.118-0.921c1.169-0.396,2.179-0.965,2.582-1.36c0.52-0.525,1.291-1.71,1.694-2.587
			c0.199-0.087,0.684-0.087,0.847,0.22v1.975c0,0.789,0.041,0.831,0.725,0.831h4.48c0.485,0.396,0.404,1.579,0.041,1.842h-4.562
			L447.777,149.735L447.777,149.735z"/>
		<path fill="#FFFFFF" d="M457.912,152.585c0-1.71,0-1.929-1.092-2.717l-0.363-0.265c-0.159-0.173-0.159-0.655,0.041-0.789
			c0.929-0.349,3.23-1.49,4.153-2.148c0.204,0,0.368,0.087,0.408,0.263c-0.082,1.536-0.163,3.641-0.163,5.437v7.894
			c0,3.159,0.082,3.595,1.531,3.814l0.847,0.132c0.286,0.22,0.204,0.965-0.077,1.097c-1.215-0.089-2.383-0.132-3.797-0.132
			c-1.449,0-2.659,0.044-3.792,0.132c-0.281-0.132-0.363-0.878-0.082-1.097l0.847-0.132c1.495-0.22,1.536-0.655,1.536-3.814
			L457.912,152.585L457.912,152.585L457.912,152.585z M461.259,140.088c0,1.576-1.01,2.281-2.138,2.281
			c-1.251,0-2.057-1.01-2.057-2.194c0-1.447,0.97-2.368,2.179-2.368S461.259,138.859,461.259,140.088z"/>
		<path fill="#FFFFFF" d="M483.568,156.356c0,5.483-3.47,9.43-8.517,9.43c-4.639,0-8.267-3.554-8.267-9.034
			c0-5.527,3.833-9.474,8.593-9.474C479.894,147.278,483.568,150.962,483.568,156.356z M474.893,148.595
			c-2.664,0-4.639,2.763-4.639,7.588c0,3.99,1.653,8.287,5.205,8.287c3.547,0,4.639-4.034,4.639-7.412
			C480.099,153.33,478.726,148.595,474.893,148.595z"/>
		<path fill="#FFFFFF" d="M489.993,152.585c0-1.71,0-1.929-1.092-2.717l-0.363-0.265c-0.159-0.173-0.159-0.655,0.041-0.789
			c0.929-0.349,3.23-1.49,4.037-2.148c0.159,0,0.363,0.087,0.444,0.306c-0.082,1.01-0.082,1.666-0.082,2.062
			c0,0.263,0.159,0.482,0.444,0.482c1.694-1.141,3.592-2.238,5.649-2.238c3.347,0,4.72,2.5,4.72,5.44v7.542
			c0,3.159,0.082,3.595,1.531,3.814l0.888,0.132c0.281,0.22,0.204,0.965-0.082,1.097c-1.21-0.089-2.378-0.132-3.792-0.132
			c-1.454,0-2.664,0.044-3.751,0.132c-0.286-0.132-0.363-0.878-0.082-1.097l0.765-0.132c1.495-0.263,1.536-0.655,1.536-3.814v-6.534
			c0-2.5-1.051-4.34-3.792-4.34c-1.536,0-2.868,0.699-3.434,1.534c-0.52,0.745-0.602,1.36-0.602,2.631v6.71
			c0,3.159,0.082,3.551,1.531,3.814l0.729,0.132c0.281,0.22,0.199,0.965-0.082,1.097c-1.092-0.089-2.261-0.132-3.674-0.132
			c-1.449,0-2.659,0.044-3.792,0.132c-0.281-0.132-0.363-0.878-0.082-1.097l0.847-0.132c1.495-0.22,1.536-0.655,1.536-3.814v-7.676
			H489.993z"/>
		<path fill="#FFFFFF" d="M519.329,148.069c0.363,0.965,0.648,2.368,0.648,3.551c-0.163,0.306-0.765,0.396-0.97,0.132
			c-0.684-1.931-1.898-3.202-3.552-3.202c-1.572,0-2.582,1.097-2.582,2.674c0,1.799,1.694,2.763,3.108,3.641
			c2.138,1.317,4.118,2.807,4.118,5.919c0,3.332-2.827,5-5.812,5c-1.898,0-3.306-0.439-4.317-1.317
			c-0.322-0.834-0.566-2.983-0.485-4.43c0.204-0.263,0.725-0.306,0.929-0.044c0.684,2.411,1.975,4.516,4.276,4.516
			c1.454,0,2.704-0.921,2.704-2.807c0-2.016-1.612-3.113-3.108-4.034c-2.342-1.447-3.996-2.983-3.996-5.393c0-3.202,2.424-5,5.491-5
			C517.477,147.278,518.967,147.717,519.329,148.069z"/>
	</g>
	<line fill="none" stroke="#FFFFFF" stroke-width="2" stroke-miterlimit="10" x1="220.093" y1="128.699" x2="523.32" y2="128.699"/>
</g>
<g>
	<path fill="#FFFFFF" d="M56.597-23.481c0,8.979-5.727,14.104-13.503,14.104c-7.943,0-12.96-5.761-12.96-13.627
		c0-8.224,5.435-14.024,13.377-14.024C51.748-37.029,56.597-31.109,56.597-23.481z M35.57-23.084c0,5.443,2.884,9.774,7.817,9.774
		c4.975,0,7.776-4.37,7.776-9.972c0-5.045-2.633-9.813-7.776-9.813C38.287-33.096,35.57-28.606,35.57-23.084z"/>
	<path fill="#FFFFFF" d="M60.942-22.925c0-2.622-0.042-4.489-0.168-6.237h4.473l0.167,3.695h0.167
		c1.004-2.741,3.386-4.132,5.56-4.132c0.502,0,0.794,0.04,1.212,0.119v4.608c-0.418-0.079-0.878-0.159-1.505-0.159
		c-2.467,0-4.139,1.51-4.599,3.695c-0.083,0.437-0.167,0.953-0.167,1.51v10.012h-5.142V-22.925z"/>
	<path fill="#FFFFFF" d="M94.092-29.162c-0.084,1.311-0.168,2.9-0.168,5.562v10.966c0,4.052-0.878,6.953-3.01,8.78
		c-2.132,1.788-5.058,2.344-7.859,2.344c-2.592,0-5.351-0.516-7.107-1.549l1.129-3.695c1.296,0.715,3.469,1.47,5.936,1.47
		c3.344,0,5.853-1.668,5.853-5.84v-1.669h-0.084c-1.171,1.708-3.261,2.861-5.936,2.861c-5.058,0-8.654-3.973-8.654-9.456
		c0-6.357,4.347-10.21,9.239-10.21c3.093,0,4.933,1.43,5.894,3.019h0.084l0.209-2.582H94.092z M88.783-21.415
		c0-0.437-0.042-0.914-0.167-1.311c-0.543-1.788-2.007-3.139-4.181-3.139c-2.884,0-5.016,2.384-5.016,6.317
		c0,3.298,1.756,5.959,4.975,5.959c1.923,0,3.595-1.192,4.18-2.94c0.125-0.516,0.209-1.192,0.209-1.748V-21.415z"/>
	<path fill="#FFFFFF" d="M110.895-9.814l-0.334-2.145h-0.125c-1.254,1.509-3.386,2.582-6.02,2.582c-4.097,0-6.396-2.821-6.396-5.761
		c0-4.886,4.557-7.35,12.081-7.31v-0.318c0-1.271-0.543-3.377-4.139-3.377c-2.007,0-4.097,0.596-5.476,1.43l-1.003-3.178
		c1.505-0.874,4.139-1.708,7.358-1.708c6.522,0,8.403,3.933,8.403,8.144v6.992c0,1.748,0.083,3.457,0.293,4.648H110.895z
		 M110.226-19.27c-3.637-0.079-7.107,0.675-7.107,3.616c0,1.907,1.296,2.781,2.926,2.781c2.048,0,3.554-1.271,4.013-2.662
		c0.125-0.357,0.167-0.754,0.167-1.072V-19.27z"/>
	<path fill="#FFFFFF" d="M120.676-23.402c0-2.225-0.042-4.092-0.168-5.761h4.515l0.251,2.9h0.125c0.878-1.51,3.093-3.337,6.48-3.337
		c3.554,0,7.232,2.185,7.232,8.303v11.482h-5.142V-20.74c0-2.781-1.087-4.887-3.888-4.887c-2.048,0-3.47,1.391-4.013,2.861
		c-0.167,0.437-0.209,1.033-0.209,1.589v11.363h-5.183V-23.402z"/>
	<path fill="#FFFFFF" d="M150.062-34.566c0,1.47-1.129,2.622-2.926,2.622c-1.714,0-2.843-1.152-2.843-2.622
		c0-1.51,1.171-2.662,2.885-2.662C148.933-37.227,150.02-36.075,150.062-34.566z M144.585-9.814v-19.348h5.183v19.348H144.585z"/>
	<path fill="#FFFFFF" d="M155.036-14.304c1.171,0.675,3.386,1.39,5.226,1.39c2.258,0,3.261-0.874,3.261-2.145
		c0-1.311-0.836-1.986-3.344-2.821c-3.971-1.311-5.644-3.377-5.602-5.642c0-3.417,2.968-6.078,7.692-6.078
		c2.258,0,4.222,0.556,5.393,1.152l-1.003,3.457c-0.878-0.477-2.508-1.112-4.306-1.112c-1.839,0-2.843,0.834-2.843,2.026
		c0,1.231,0.961,1.827,3.554,2.702c3.679,1.271,5.393,3.059,5.434,5.919c0,3.497-2.884,6.039-8.277,6.039
		c-2.467,0-4.683-0.556-6.187-1.351L155.036-14.304z"/>
	<path fill="#FFFFFF" d="M176.354-18.118c0.125,3.496,3.01,5.006,6.271,5.006c2.383,0,4.097-0.318,5.644-0.874l0.752,3.377
		c-1.756,0.675-4.18,1.192-7.107,1.192c-6.605,0-10.493-3.854-10.493-9.774c0-5.363,3.428-10.409,9.949-10.409
		c6.605,0,8.779,5.165,8.779,9.416c0,0.913-0.084,1.629-0.167,2.066H176.354z M185.3-21.534c0.042-1.788-0.794-4.728-4.222-4.728
		c-3.177,0-4.515,2.741-4.724,4.728H185.3z"/>
	<path fill="#FFFFFF" d="M213.056-38.022v22.765c0,1.986,0.084,4.132,0.167,5.443h-4.598l-0.209-3.059h-0.083
		c-1.212,2.145-3.679,3.496-6.647,3.496c-4.849,0-8.695-3.933-8.695-9.893c-0.042-6.476,4.222-10.329,9.113-10.329
		c2.801,0,4.808,1.112,5.727,2.543h0.083v-10.966H213.056z M207.914-21.097c0-0.397-0.042-0.874-0.125-1.271
		c-0.46-1.907-2.09-3.457-4.432-3.457c-3.302,0-5.142,2.781-5.142,6.397c0,3.536,1.84,6.118,5.1,6.118
		c2.09,0,3.93-1.351,4.431-3.457c0.125-0.437,0.167-0.914,0.167-1.43V-21.097z"/>
	<path fill="#FFFFFF" d="M227.057-9.814c0.084-1.311,0.168-3.457,0.168-5.443v-22.765h5.142v11.522h0.084
		c1.254-1.867,3.47-3.099,6.521-3.099c4.975,0,8.528,3.933,8.487,9.813c0,6.953-4.64,10.409-9.239,10.409
		c-2.634,0-4.975-0.953-6.438-3.337h-0.084l-0.251,2.9H227.057z M232.367-17.8c0,0.397,0.042,0.794,0.125,1.152
		c0.543,1.947,2.341,3.417,4.557,3.417c3.219,0,5.184-2.463,5.184-6.357c0-3.417-1.714-6.198-5.142-6.198
		c-2.09,0-3.971,1.43-4.557,3.576c-0.083,0.357-0.167,0.794-0.167,1.271V-17.8z"/>
	<path fill="#FFFFFF" d="M254.563-29.162l3.679,10.369c0.418,1.192,0.836,2.662,1.129,3.774h0.125
		c0.335-1.113,0.711-2.543,1.087-3.814l3.177-10.33h5.519l-5.1,13.19c-2.801,7.231-4.683,10.449-7.107,12.435
		c-2.007,1.708-4.097,2.344-5.393,2.503l-1.171-4.132c0.878-0.199,1.965-0.636,3.01-1.351c0.961-0.596,2.09-1.748,2.801-3.059
		c0.209-0.357,0.334-0.636,0.334-0.874c0-0.198-0.042-0.476-0.293-0.953l-7.441-17.759H254.563z"/>
	<path fill="#FFFFFF" d="M272.203-25.865c0-1.828,1.338-3.139,3.178-3.139c1.881,0,3.136,1.311,3.177,3.139
		c0,1.788-1.254,3.099-3.177,3.099C273.499-22.766,272.203-24.077,272.203-25.865z M272.203-12.476c0-1.828,1.338-3.139,3.178-3.139
		c1.881,0,3.136,1.271,3.177,3.139c0,1.748-1.254,3.099-3.177,3.099C273.499-9.377,272.203-10.728,272.203-12.476z"/>
</g>
</svg>
