<?xml version="1.0" encoding="utf-8"?>
<!-- Generator: Adobe Illustrator 17.0.0, SVG Export Plug-In . SVG Version: 6.00 Build 0)  -->
<!DOCTYPE svg PUBLIC "-//W3C//DTD SVG 1.1//EN" "http://www.w3.org/Graphics/SVG/1.1/DTD/svg11.dtd">
<svg version="1.1" id="Layer_1" xmlns="http://www.w3.org/2000/svg" xmlns:xlink="http://www.w3.org/1999/xlink" x="0px" y="0px"
	 width="46.846px" height="45.25px" viewBox="0 0 46.846 45.25" enable-background="new 0 0 46.846 45.25" xml:space="preserve">
<g>
	<g>
		<g>
			<defs>
				<rect id="SVGID_1_" x="5.88" y="5.012" width="35.087" height="35.227"/>
			</defs>
			<clipPath id="SVGID_2_">
				<use xlink:href="#SVGID_1_"  overflow="visible"/>
			</clipPath>
			<path clip-path="url(#SVGID_2_)" fill="#ED1C24" d="M26.319,17.922c0,1.562-1.265,2.828-2.827,2.828
				c-1.562,0-2.827-1.265-2.827-2.828c0-1.562,1.265-2.827,2.827-2.827C25.053,15.094,26.319,16.36,26.319,17.922L26.319,17.922z"/>
		</g>
		<g>
			<defs>
				<rect id="SVGID_3_" x="5.88" y="5.012" width="35.087" height="35.227"/>
			</defs>
			<clipPath id="SVGID_4_">
				<use xlink:href="#SVGID_3_"  overflow="visible"/>
			</clipPath>
			<path clip-path="url(#SVGID_4_)" fill="#ED1C24" d="M23.44,4.977c-9.698,0-17.56,7.862-17.56,17.56s7.862,17.561,17.56,17.561
				s17.561-7.863,17.561-17.561S33.138,4.977,23.44,4.977L23.44,4.977z M23.403,13.017c0.012,0,0.025-0.001,0.037-0.001
				c0.012,0.001,0.024,0.001,0.037,0.001c2.959,0.047,5.366,2.492,5.366,5.452c0,3.618-3.866,7.282-5.403,8.596
				c-0.103-0.088-0.217-0.186-0.338-0.295c-0.003-0.002-0.004-0.004-0.006-0.005c-1.701-1.511-5.059-4.922-5.059-8.295
				C18.037,15.509,20.445,13.064,23.403,13.017L23.403,13.017z M23.517,32.167c-3.238,0-6.518-0.929-6.518-2.705
				c0-1.246,1.614-2.074,3.696-2.457c0.403,0.404,0.783,0.761,1.118,1.059c-2.267,0.253-3.599,0.971-3.599,1.398
				c0,0.525,2.013,1.489,5.303,1.489s5.303-0.965,5.303-1.489c0-0.436-1.388-1.172-3.738-1.412c0.337-0.301,0.722-0.66,1.127-1.07
				c2.143,0.373,3.824,1.21,3.824,2.482C30.034,31.238,26.756,32.167,23.517,32.167L23.517,32.167z"/>
		</g>
	</g>
</g>
</svg>
