<?xml version="1.0" encoding="utf-8"?>
<!-- Generator: Adobe Illustrator 17.0.0, SVG Export Plug-In . SVG Version: 6.00 Build 0)  -->
<!DOCTYPE svg PUBLIC "-//W3C//DTD SVG 1.1//EN" "http://www.w3.org/Graphics/SVG/1.1/DTD/svg11.dtd">
<svg version="1.1" id="Layer_1" xmlns="http://www.w3.org/2000/svg" xmlns:xlink="http://www.w3.org/1999/xlink" x="0px" y="0px"
	 width="21.198px" height="24.058px" viewBox="12.411 12.454 21.198 24.058" enable-background="new 12.411 12.454 21.198 24.058"
	 xml:space="preserve">
<g>
	<path fill="#FFFFFF" stroke="#FFFFFF" stroke-width="0.25" stroke-miterlimit="10" d="M32.082,22.416l-2.947-2.412v-2.274
		c0-0.302-0.245-0.547-0.547-0.547H25.69l-2.33-1.907c-0.2-0.164-0.488-0.165-0.69-0.002l-2.366,1.91h-2.991
		c-0.302,0-0.547,0.245-0.547,0.547v2.308l-2.944,2.376c-0.129,0.104-0.203,0.26-0.203,0.425v10.429
		c0,0.302,0.245,0.547,0.547,0.547h17.57c0.302,0,0.547-0.245,0.547-0.547V22.839C32.282,22.675,32.209,22.519,32.082,22.416
		L32.082,22.416z M18.901,27.794l-4.189,4.16v-7.895L18.901,27.794z M19.719,28.523l2.868,2.557
		c0.104,0.092,0.234,0.139,0.364,0.139c0.13,0,0.26-0.046,0.364-0.139l2.868-2.557l4.227,4.198H15.492L19.719,28.523z M27,27.794
		l4.189-3.735v7.895L27,27.794z M30.894,22.856l-1.759,1.568v-3.008L30.894,22.856z M23.011,16.403l0.953,0.78h-1.919L23.011,16.403
		z M28.042,18.276V25.4l-5.091,4.539L17.859,25.4v-7.124H28.042z M16.766,24.425l-1.755-1.565l1.755-1.417V24.425z M16.766,24.425"
		/>
	<path fill="#FFFFFF" stroke="#FFFFFF" stroke-width="0.25" stroke-miterlimit="10" d="M19.544,20.44h6.812
		c0.302,0,0.547-0.245,0.547-0.547c0-0.302-0.245-0.547-0.547-0.547h-6.812c-0.302,0-0.547,0.245-0.547,0.547
		C18.998,20.195,19.243,20.44,19.544,20.44L19.544,20.44z M19.544,20.44"/>
	<path fill="#FFFFFF" stroke="#FFFFFF" stroke-width="0.25" stroke-miterlimit="10" d="M19.544,22.244h2.338
		c0.302,0,0.547-0.245,0.547-0.547c0-0.302-0.245-0.547-0.547-0.547h-2.338c-0.302,0-0.547,0.245-0.547,0.547
		C18.998,21.999,19.243,22.244,19.544,22.244L19.544,22.244z M19.544,22.244"/>
	<path fill="#FFFFFF" stroke="#FFFFFF" stroke-width="0.25" stroke-miterlimit="10" d="M26.357,21.151h-2.338
		c-0.302,0-0.547,0.245-0.547,0.547c0,0.302,0.245,0.547,0.547,0.547h2.338c0.302,0,0.547-0.245,0.547-0.547
		C26.903,21.395,26.659,21.151,26.357,21.151L26.357,21.151z M26.357,21.151"/>
	<path fill="#FFFFFF" stroke="#FFFFFF" stroke-width="0.25" stroke-miterlimit="10" d="M19.544,24.067h2.338
		c0.302,0,0.547-0.245,0.547-0.547c0-0.302-0.245-0.547-0.547-0.547h-2.338c-0.302,0-0.547,0.245-0.547,0.547
		C18.998,23.823,19.243,24.067,19.544,24.067L19.544,24.067z M19.544,24.067"/>
	<path fill="#FFFFFF" stroke="#FFFFFF" stroke-width="0.25" stroke-miterlimit="10" d="M26.357,22.974h-2.338
		c-0.302,0-0.547,0.245-0.547,0.547c0,0.302,0.245,0.547,0.547,0.547h2.338c0.302,0,0.547-0.245,0.547-0.547
		C26.903,23.219,26.659,22.974,26.357,22.974L26.357,22.974z M26.357,22.974"/>
	<path fill="#FFFFFF" stroke="#FFFFFF" stroke-width="0.25" stroke-miterlimit="10" d="M19.544,25.891h6.812
		c0.302,0,0.547-0.245,0.547-0.547c0-0.302-0.245-0.547-0.547-0.547h-6.812c-0.302,0-0.547,0.245-0.547,0.547
		C18.998,25.646,19.243,25.891,19.544,25.891L19.544,25.891z M19.544,25.891"/>
	<path fill="#FFFFFF" stroke="#FFFFFF" stroke-width="0.25" stroke-miterlimit="10" d="M32.4,21.881"/>
</g>
</svg>
