<?xml version="1.0" encoding="utf-8"?>
<!-- Generator: Adobe Illustrator 17.0.0, SVG Export Plug-In . SVG Version: 6.00 Build 0)  -->
<!DOCTYPE svg PUBLIC "-//W3C//DTD SVG 1.1//EN" "http://www.w3.org/Graphics/SVG/1.1/DTD/svg11.dtd">
<svg version="1.1" id="Layer_1" xmlns="http://www.w3.org/2000/svg" xmlns:xlink="http://www.w3.org/1999/xlink" x="0px" y="0px"
	 width="21.198px" height="24.058px" viewBox="12.411 12.454 21.198 24.058" enable-background="new 12.411 12.454 21.198 24.058"
	 xml:space="preserve">
<g>
	<path fill="#FFFFFF" d="M20.417,31.2l1.727-0.691l-2.402-3.002l-0.689,0.345L20.417,31.2z M20.417,31.2"/>
	<path fill="#FFFFFF" d="M24.127,30.51l1.727,0.691l1.364-3.348l-0.689-0.345L24.127,30.51z M24.127,30.51"/>
	<path fill="#FFFFFF" d="M21.852,28.189l1.283,1.604l1.283-1.604C23.581,28.37,22.714,28.376,21.852,28.189L21.852,28.189z
		 M21.852,28.189"/>
	<path fill="#FFFFFF" d="M19.514,32.224L17.9,28.262l-2.129,0.426c-1.044,0.209-1.801,1.133-1.801,2.197v3.634
		c0,0.338,0.273,0.611,0.611,0.611h7.943v-3.456l-2.217,0.887C19.995,32.685,19.641,32.535,19.514,32.224L19.514,32.224z
		 M19.514,32.224"/>
	<path fill="#FFFFFF" d="M30.499,28.688l-2.129-0.426l-1.614,3.962c-0.127,0.311-0.481,0.461-0.793,0.337l-2.217-0.887v3.456h7.943
		c0.338,0,0.611-0.273,0.611-0.611v-3.634C32.3,29.821,31.543,28.897,30.499,28.688L30.499,28.688z M30.499,28.688"/>
	<path fill="#FFFFFF" d="M28.023,18.551v-1.222c0-1.685-1.371-3.055-3.055-3.055h-7.943c-0.338,0-0.611,0.273-0.611,0.611v2.24
		c0,0.516,0.153,1.008,0.41,1.426H28.023z M28.023,18.551"/>
	<path fill="#FFFFFF" d="M28.023,19.773h-9.776v0.105c-0.711,0.252-1.222,0.932-1.222,1.728c0,0.848,0.578,1.563,1.361,1.772
		c0.532,2.181,2.491,3.728,4.749,3.728c2.254,0,4.216-1.544,4.749-3.728c0.783-0.209,1.361-0.924,1.361-1.772
		c0-0.797-0.511-1.476-1.222-1.728V19.773z M23.746,24.742h-1.222c-0.338,0-0.611-0.273-0.611-0.611
		c0-0.338,0.273-0.611,0.611-0.611h1.222c0.338,0,0.611,0.273,0.611,0.611C24.357,24.469,24.084,24.742,23.746,24.742L23.746,24.742
		z M23.746,24.742"/>
</g>
</svg>
