<?xml version="1.0" encoding="utf-8"?>
<!-- Generator: Adobe Illustrator 17.0.0, SVG Export Plug-In . SVG Version: 6.00 Build 0)  -->
<!DOCTYPE svg PUBLIC "-//W3C//DTD SVG 1.1//EN" "http://www.w3.org/Graphics/SVG/1.1/DTD/svg11.dtd">
<svg version="1.1" id="Layer_1" xmlns="http://www.w3.org/2000/svg" xmlns:xlink="http://www.w3.org/1999/xlink" x="0px" y="0px"
	 width="21.198px" height="24.058px" viewBox="12.411 12.454 21.198 24.058" enable-background="new 12.411 12.454 21.198 24.058"
	 xml:space="preserve">
<g>
	<path fill="#FFFFFF" stroke="#FFFFFF" stroke-width="0.5" stroke-miterlimit="10" d="M12.736,24.483
		c0-2.841,1.004-5.264,3.013-7.268s4.429-3.006,7.261-3.006c2.841,0,5.264,1.002,7.268,3.006s3.006,4.426,3.006,7.268
		c0,2.832-1.002,5.252-3.006,7.261s-4.426,3.013-7.268,3.013c-2.832,0-5.252-1.004-7.261-3.013S12.736,27.315,12.736,24.483z
		 M13.597,24.483c0,2.619,0.914,4.843,2.742,6.671c1.828,1.828,4.052,2.742,6.671,2.742c2.629,0,4.857-0.914,6.685-2.742
		c1.828-1.828,2.742-4.052,2.742-6.671c0-2.629-0.914-4.857-2.742-6.685c-1.828-1.828-4.056-2.742-6.685-2.742
		s-4.854,0.914-6.678,2.742C14.509,19.626,13.597,21.854,13.597,24.483z M22.828,20.971h-0.291c-1.203,0-1.804-0.763-1.804-2.289
		c0-0.581,0.095-0.975,0.285-1.181c0.19-0.206,0.555-0.309,1.096-0.309h0.339c-0.178,0.525-0.266,1.001-0.266,1.429
		C22.186,19.437,22.4,20.22,22.828,20.971z M22.477,31.954h-0.375c-0.484,0-0.817-0.105-0.999-0.315
		c-0.182-0.21-0.272-0.593-0.272-1.15c0-1.55,0.565-2.325,1.695-2.325h0.363c-0.404,0.743-0.605,1.546-0.605,2.41
		C22.283,31.058,22.348,31.518,22.477,31.954z M25.25,31.083c-0.71,0.428-1.518,0.718-2.422,0.872
		c-0.105-0.468-0.157-0.928-0.157-1.38c0-0.759,0.202-1.562,0.605-2.41h0.17c0.783,0,1.175-1.179,1.175-3.536
		c0-2.438-0.392-3.657-1.175-3.657h-0.17c-0.468-0.807-0.702-1.598-0.702-2.373c0-0.476,0.089-0.945,0.266-1.405
		c0.827,0.137,1.631,0.428,2.41,0.872c0.371,0.993,0.65,2.03,0.836,3.112c0.186,1.082,0.279,2.208,0.279,3.379
		c0,1.195-0.093,2.335-0.279,3.421C25.9,29.062,25.621,30.098,25.25,31.083z"/>
</g>
</svg>
