<?xml version="1.0" encoding="utf-8"?>
<!-- Generator: Adobe Illustrator 17.0.0, SVG Export Plug-In . SVG Version: 6.00 Build 0)  -->
<!DOCTYPE svg PUBLIC "-//W3C//DTD SVG 1.1//EN" "http://www.w3.org/Graphics/SVG/1.1/DTD/svg11.dtd">
<svg version="1.1" id="Layer_1" xmlns="http://www.w3.org/2000/svg" xmlns:xlink="http://www.w3.org/1999/xlink" x="0px" y="0px"
	 width="46.846px" height="45.25px" viewBox="0 0 46.846 45.25" enable-background="new 0 0 46.846 45.25" xml:space="preserve">
<g>
	<g>
		<defs>
			<rect id="SVGID_1_" x="3.763" y="2.886" width="39.321" height="39.478"/>
		</defs>
		<clipPath id="SVGID_2_">
			<use xlink:href="#SVGID_1_"  overflow="visible"/>
		</clipPath>
		<path clip-path="url(#SVGID_2_)" fill="#ED1C24" d="M23.441,2.847c-10.867,0-19.679,8.811-19.679,19.679
			c0,10.868,8.811,19.68,19.679,19.68c10.869,0,19.681-8.812,19.681-19.68C43.122,11.658,34.31,2.847,23.441,2.847L23.441,2.847z
			 M31.439,31.335v1.361c0,0.752-0.609,1.361-1.361,1.361H16.467c-1.504,0-2.723-1.219-2.723-2.723V14.208
			c0-1.504,1.219-2.723,2.723-2.723h13.611c0.751,0,1.361,0.61,1.361,1.361V31.335z M34.161,14.208v18.488
			c0,0.752-0.609,1.361-1.361,1.361h-0.368c0.233-0.401,0.368-0.865,0.368-1.361V12.847c0-0.496-0.136-0.96-0.368-1.361H32.8
			c0.751,0,1.361,0.609,1.361,1.361V14.208z M34.161,14.208"/>
	</g>
	<path fill="#ED1C24" d="M26.8,24.563c0,0-0.513-0.616-1.081-0.191c-0.423,0.316-1.184,1.02-1.366,1.191
		c0,0-1.272-0.678-2.024-1.297c-1.115-0.917-1.86-2.048-2.25-2.691l-0.292-0.55c0.102-0.11,0.88-0.943,1.217-1.396
		c0.424-0.568-0.19-1.08-0.19-1.08s-1.73-1.73-2.124-2.073c-0.394-0.344-0.848-0.153-0.848-0.153
		c-0.828,0.535-1.687,1.001-1.738,3.239c-0.002,2.095,1.589,4.256,3.308,5.929c1.723,1.889,4.088,3.783,6.375,3.78
		c2.238-0.05,2.702-0.909,3.238-1.737c0,0,0.192-0.453-0.152-0.847C28.53,26.292,26.8,24.563,26.8,24.563L26.8,24.563z M26.8,24.563
		"/>
</g>
</svg>
