<?xml version="1.0" encoding="utf-8"?>
<!-- Generator: Adobe Illustrator 17.0.0, SVG Export Plug-In . SVG Version: 6.00 Build 0)  -->
<!DOCTYPE svg PUBLIC "-//W3C//DTD SVG 1.1//EN" "http://www.w3.org/Graphics/SVG/1.1/DTD/svg11.dtd">
<svg version="1.1" id="Layer_1" xmlns="http://www.w3.org/2000/svg" xmlns:xlink="http://www.w3.org/1999/xlink" x="0px" y="0px"
	 width="69.927px" height="67.545px" viewBox="0 -22.295 69.927 67.545" enable-background="new 0 -22.295 69.927 67.545"
	 xml:space="preserve">
<g>
	<g>
		<g>
			<defs>
				<rect id="SVGID_1_" x="3.763" y="-19.789" width="61.906" height="62.153"/>
			</defs>
			<clipPath id="SVGID_2_">
				<use xlink:href="#SVGID_1_"  overflow="visible"/>
			</clipPath>
			<path clip-path="url(#SVGID_2_)" fill="#ED1C24" d="M34.744-19.851c-17.109,0-30.982,13.872-30.982,30.982
				s13.872,30.984,30.982,30.984c17.112,0,30.985-13.873,30.985-30.984S51.856-19.851,34.744-19.851L34.744-19.851z M47.335,25
				v2.143c0,1.184-0.959,2.143-2.143,2.143H23.764c-2.368,0-4.287-1.919-4.287-4.287V-1.964c0-2.368,1.919-4.287,4.287-4.287h21.429
				c1.182,0,2.143,0.96,2.143,2.143V25z M51.621-1.964v29.107c0,1.184-0.959,2.143-2.143,2.143h-0.579
				c0.367-0.631,0.579-1.362,0.579-2.143v-31.25c0-0.781-0.214-1.511-0.579-2.143h0.579c1.182,0,2.143,0.959,2.143,2.143V-1.964z"/>
		</g>
	</g>
	<path fill="#ED1C24" d="M40.032,14.339c0,0-0.808-0.97-1.702-0.301c-0.666,0.498-1.864,1.606-2.151,1.875
		c0,0-2.003-1.067-3.187-2.042c-1.755-1.444-2.928-3.224-3.542-4.237l-0.46-0.866c0.161-0.173,1.385-1.485,1.916-2.198
		c0.668-0.894-0.299-1.7-0.299-1.7s-2.724-2.724-3.344-3.264c-0.62-0.542-1.335-0.241-1.335-0.241
		c-1.304,0.842-2.656,1.576-2.736,5.099c-0.003,3.298,2.502,6.701,5.208,9.334c2.713,2.974,6.436,5.956,10.037,5.951
		c3.523-0.079,4.254-1.431,5.098-2.735c0,0,0.302-0.713-0.239-1.333C42.756,17.061,40.032,14.339,40.032,14.339L40.032,14.339z"/>
</g>
</svg>
