<?xml version="1.0" encoding="utf-8"?>
<!-- Generator: Adobe Illustrator 17.0.0, SVG Export Plug-In . SVG Version: 6.00 Build 0)  -->
<!DOCTYPE svg PUBLIC "-//W3C//DTD SVG 1.1//EN" "http://www.w3.org/Graphics/SVG/1.1/DTD/svg11.dtd">
<svg version="1.1" id="Layer_1" xmlns="http://www.w3.org/2000/svg" xmlns:xlink="http://www.w3.org/1999/xlink" x="0px" y="0px"
	 width="21.198px" height="24.058px" viewBox="12.411 12.454 21.198 24.058" enable-background="new 12.411 12.454 21.198 24.058"
	 xml:space="preserve">
<g>
	<path fill="#FFFFFF" stroke="#FFFFFF" stroke-miterlimit="10" d="M15.764,33.731l3.176-7.859c0.454,0.424,0.952,0.835,1.502,1.222
		c0.543,0.384,1.098,0.719,1.654,1.006L15.764,33.731z"/>
	<path fill="#FFFFFF" stroke="#FFFFFF" stroke-miterlimit="10" d="M31.187,19.118c-0.387,0.55-1.173,0.733-2.108,0.586l-1.951,2.767
		c1.52,1.721,2.126,3.548,1.361,4.636c-0.31,0.44-0.809,0.708-1.436,0.817c-1.153,0.2-2.736-0.148-4.354-0.981
		c-0.036-0.018-0.072-0.038-0.108-0.057c-0.115-0.061-0.231-0.124-0.347-0.19c-0.046-0.026-0.092-0.053-0.137-0.08
		c-0.111-0.065-0.221-0.133-0.332-0.202c-0.043-0.027-0.087-0.053-0.13-0.082c-0.151-0.097-0.301-0.197-0.45-0.303
		c-0.17-0.12-0.335-0.243-0.496-0.369c-0.099-0.077-0.194-0.157-0.29-0.236c-0.052-0.043-0.106-0.086-0.158-0.13
		c-0.124-0.106-0.244-0.214-0.361-0.323c-0.015-0.014-0.03-0.027-0.044-0.04c-2.061-1.923-3-4.159-2.118-5.41
		c0.31-0.44,0.81-0.709,1.436-0.817c0.922-0.16,2.118,0.031,3.389,0.539l1.95-2.765c-0.453-0.831-0.545-1.633-0.156-2.183
		c0.727-1.031,2.847-0.787,4.737,0.545C30.972,16.171,31.915,18.086,31.187,19.118L31.187,19.118z"/>
</g>
</svg>
